<svg id="Logo" xmlns="http://www.w3.org/2000/svg" viewBox="0 0 420.88 669"><defs><style>.cls-1{fill:#fff;}</style></defs><title>fenix-logo</title><path class="cls-1" d="M111.64,263.19a130.21,130.21,0,0,1-17.28,5.33A100.62,100.62,0,0,0,16.7,362.87C-10.76,306.3,39,250.22,106.06,177.66,182.6,94.82,89.78,5,89.78,5c133.86,84.2,121.76,219.44,21.86,258.19Z" transform="translate(-9 -5)"/><path class="cls-1" d="M134.35,272.29a128.51,128.51,0,0,1-18.09.25A100.63,100.63,0,0,0,15.18,341.22c-10.43-62,53.13-101.82,137.88-152.57,96.76-57.94,33-170.26,33-170.26,104.74,118.48,55.06,244.84-51.7,253.9Z" transform="translate(-9 -5)"/><path class="cls-1" d="M153.57,287.41a128.28,128.28,0,0,1-17.43-4.85A100.62,100.62,0,0,0,19.82,320c7.45-62.45,79.64-82.75,175.25-107.59,109.16-28.37,79.58-154.09,79.58-154.09,67.16,143.17-16.08,250.43-121.08,229.07Z" transform="translate(-9 -5)"/><path class="cls-1" d="M167.76,307.34a128.66,128.66,0,0,1-15.36-9.56A100.62,100.62,0,0,0,30.24,301C55,243.15,130,244,228.69,247.07c112.73,3.51,119.74-125.46,119.74-125.46,24.14,156.28-85.93,235.78-180.67,185.73Z" transform="translate(-9 -5)"/><path class="cls-1" d="M175.76,330.45a128.44,128.44,0,0,1-12-13.49A100.65,100.65,0,0,0,45.6,285.63c40-48.52,111.71-26.61,205.59,4.14,107.19,35.1,150.22-86.68,150.22-86.68C380.58,359.85,252.58,405.15,175.76,330.45Z" transform="translate(-9 -5)"/><path class="cls-1" d="M176.94,354.88a127.84,127.84,0,0,1-7.76-16.34,100.63,100.63,0,0,0-104.53-63.3c52-35.3,114.69,5.91,196.12,61.84,93,63.86,168.54-40.89,168.54-40.89-64.11,144.56-199.69,152-252.37,58.69Z" transform="translate(-9 -5)"/><path class="cls-1" d="M171.19,378.66a128.44,128.44,0,0,1-2.85-17.86,100.64,100.64,0,0,0-82.48-90.18c59.88-19.22,108.39,38,170.78,114.55,71.24,87.45,173.24,8.21,173.24,8.21C327.67,514.05,195.48,483,171.19,378.66Z" transform="translate(-9 -5)"/><path class="cls-1" d="M159,399.85a127.39,127.39,0,0,1,2.3-17.94,100.62,100.62,0,0,0-53.77-109.74c62.87-1.59,93.33,66.93,131.64,158,43.74,104,163.91,56.64,163.91,56.64-132,87-250.15,20-244.08-86.95Z" transform="translate(-9 -5)"/><path class="cls-1" d="M141.29,416.75a129.63,129.63,0,0,1,7.26-16.56,100.6,100.6,0,0,0-20.7-120.44c60.77,16.17,70.71,90.49,81.84,188.65C222.4,580.47,351,568.89,351,568.89c-151.2,46.33-245.68-51.19-209.75-152.14Z" transform="translate(-9 -5)"/><path class="cls-1" d="M119.57,428a128,128,0,0,1,11.63-13.85,100.63,100.63,0,0,0,14-121.4c53.76,32.62,42.37,106.75,25.42,204.07C151.31,607.92,278,633,278,633,119.88,634.91,56.67,514.74,119.57,428Z" transform="translate(-9 -5)"/><path class="cls-1" d="M95.56,432.66a129.52,129.52,0,0,1,15.06-10,100.59,100.59,0,0,0,47.64-112.53c42.41,46.43,10.62,114.35-33,203C75.37,614.25,189.87,674,189.87,674,37.61,631.3,10.79,498.2,95.56,432.66Z" transform="translate(-9 -5)"/></svg>